<?xml version="1.0" standalone="no"?>
<!DOCTYPE svg PUBLIC "-//W3C//DTD SVG 20010904//EN"
 "http://www.w3.org/TR/2001/REC-SVG-20010904/DTD/svg10.dtd">
<svg version="1.0" xmlns="http://www.w3.org/2000/svg"
 width="300.000000pt" height="300.000000pt" viewBox="0 0 300.000000 300.000000"
 preserveAspectRatio="xMidYMid meet">
<metadata>
Created by potrace 1.11, written by Peter Selinger 2001-2013
</metadata>
<g transform="translate(0.000000,300.000000) scale(0.100000,-0.100000)"
fill="#000000" stroke="none">
<path d="M1323 2712 c-95 -130 -318 -435 -495 -677 -178 -243 -424 -579 -548
-748 -124 -169 -226 -313 -228 -320 -1 -7 28 -30 64 -52 36 -22 78 -47 92 -56
33 -20 711 -445 732 -459 48 -31 137 -87 150 -93 8 -4 41 -24 72 -45 31 -20
120 -77 197 -125 l141 -88 228 142 c125 78 252 157 282 177 96 62 122 78 250
157 69 43 148 92 175 109 28 18 156 99 286 181 l236 148 -235 321 c-129 177
-344 469 -476 649 -133 181 -269 367 -303 414 -34 47 -70 96 -80 109 -10 13
-94 129 -188 258 -93 129 -172 235 -175 235 -3 0 -83 -107 -177 -237z m175
-1846 l-3 -584 -260 163 c-245 154 -437 274 -511 320 -177 109 -394 248 -394
253 0 11 298 416 309 420 7 2 254 -147 269 -163 2 -2 -27 -45 -63 -95 -38 -51
-64 -95 -59 -100 16 -15 334 -210 346 -212 10 -2 12 136 13 633 l0 636 149
204 c82 112 161 220 175 240 l26 36 3 -584 c1 -320 1 -846 0 -1167z m546 462
c91 -126 166 -232 166 -237 0 -7 -315 -213 -350 -228 -3 -2 -4 142 -3 320 2
412 1 393 12 382 4 -6 83 -112 175 -237z"/>
</g>
</svg>
